<svg height="24" width="24" viewBox="0 0 24 24"
  xmlns="http://www.w3.org/2000/svg" class="h-12 w-12 rounded-[12px] text-current" role="img" aria-hidden="false" aria-labelledby=":r3d:_title " style="clip-path: inset(0px round 12px);">
  <title id=":r3d:_title">Pinterest</title>
  <path fill="#ffffff" d="M0 0h24v24H0z"></path>
  <path fill="#E60022" d="M4 12a8 8 0 0 0 5.153 7.479c-.073-.625-.151-1.655.017-2.378.145-.621.934-3.958.934-3.958s-.238-.477-.238-1.183c0-1.107.641-1.934 1.44-1.934.68 0 1.009.51 1.009 1.122 0 .683-.436 1.704-.66 2.652-.188.792.398 1.44 1.179 1.44 1.415 0 2.504-1.494 2.504-3.648 0-1.907-1.37-3.24-3.327-3.24-2.266 0-3.596 1.7-3.596 3.456 0 .684.264 1.418.593 1.817a.24.24 0 0 1 .055.229c-.06.252-.195.793-.221.903-.035.146-.115.177-.267.106-.994-.463-1.616-1.916-1.616-3.085 0-2.512 1.825-4.819 5.262-4.819 2.762 0 4.91 1.969 4.91 4.6 0 2.744-1.73 4.954-4.133 4.954-.807 0-1.565-.42-1.825-.916 0 0-.4 1.522-.496 1.894-.188.722-.71 1.637-1.033 2.156A8 8 0 1 0 4 12"></path>
</svg>