<svg height="24" width="24" viewBox="0 0 24 24"
  xmlns="http://www.w3.org/2000/svg" class="h-12 w-12 rounded-[12px] text-current" role="img" aria-hidden="false" aria-labelledby=":r3c:_title " style="clip-path: inset(0px round 12px);">
  <title id=":r3c:_title">Snapchat</title>
  <path fill="#FFFC00" d="M0 0h24v24H0z"></path>
  <path fill="#ffffff" d="M19.407 16.177c-2.672-1.285-3.1-3.289-3.113-3.44-.025-.177-.05-.315.139-.504.201-.177 1.046-.693 1.272-.857.391-.277.567-.542.441-.882-.088-.227-.302-.315-.529-.315-.075 0-.138 0-.214.025-.428.088-.844.303-1.084.365a.4.4 0 0 1-.088 0c-.126 0-.176-.05-.164-.201.038-.466.101-1.386.025-2.23a3.53 3.53 0 0 0-.932-2.269 4.12 4.12 0 0 0-3.163-1.31c-1.94 0-2.949 1.058-3.15 1.31-.466.504-.832 1.097-.933 2.268-.075.845-.012 1.765.013 2.23 0 .14-.038.202-.164.202a.4.4 0 0 1-.088 0c-.24-.062-.655-.277-1.084-.378a1 1 0 0 0-.214-.012c-.227 0-.441.088-.53.315-.125.328.051.605.442.882.24.151 1.083.68 1.272.857.202.189.177.327.152.504-.026.151-.454 2.142-3.125 3.44-.152.076-.416.24.05.504.73.403 1.222.353 1.613.605.315.214.126.655.365.819.29.202 1.134-.013 2.256.353.92.302 1.487 1.172 3.125 1.172s2.23-.882 3.138-1.172c1.096-.366 1.953-.151 2.243-.353.252-.164.05-.605.378-.82.378-.251.87-.2 1.6-.604.479-.252.214-.428.05-.504"></path>
  <path fill="#000000" d="M20.566 16.026a1.2 1.2 0 0 0-.605-.63 2 2 0 0 0-.126-.076l-.252-.126a5.15 5.15 0 0 1-1.878-1.613 3.7 3.7 0 0 1-.315-.58c-.037-.1-.037-.163-.012-.214a.4.4 0 0 1 .1-.126q.39-.255.782-.504c.34-.227.567-.479.718-.756a1.51 1.51 0 0 0 .076-1.26 1.49 1.49 0 0 0-1.437-.932q-.27 0-.53.075c0-.403 0-.819-.037-1.235a4.64 4.64 0 0 0-2.344-3.78 5.4 5.4 0 0 0-2.709-.668c-.995 0-1.89.227-2.71.693a4.61 4.61 0 0 0-2.33 3.768q-.05.61-.038 1.222a3 3 0 0 0-.53-.075 1.474 1.474 0 0 0-1.524 1.575c0 .214.063.428.164.63.15.264.378.504.718.756l.403.252.366.252a.3.3 0 0 1 .113.113c.025.05.025.126-.013.227-.088.202-.201.378-.315.567-.428.63-1.046 1.16-1.84 1.588-.415.227-.844.378-1.02.87-.139.377-.05.793.302 1.159.126.126.278.252.441.327.34.19.693.34 1.071.441a.8.8 0 0 1 .227.089c.126.126.101.277.278.529.075.126.189.24.315.328.352.252.756.252 1.184.277.378.012.82.025 1.31.189.202.075.416.201.668.352.593.379 1.412.87 2.773.87 1.36 0 2.18-.504 2.772-.87.252-.15.466-.277.668-.352.504-.164.932-.177 1.31-.19.429-.012.832-.037 1.185-.276a1.24 1.24 0 0 0 .365-.404c.126-.201.126-.353.227-.453.063-.038.126-.076.214-.089.378-.1.744-.252 1.084-.44.176-.089.34-.215.466-.354.34-.365.416-.78.277-1.134zm-1.21.655c-.73.403-1.222.366-1.6.605-.328.214-.139.668-.378.832-.29.189-1.134-.026-2.243.34-.92.302-1.5 1.172-3.138 1.172s-2.205-.87-3.138-1.172c-1.096-.366-1.953-.151-2.243-.353-.239-.164-.05-.605-.378-.82-.378-.251-.87-.2-1.6-.604-.479-.252-.202-.416-.05-.504 2.671-1.285 3.1-3.276 3.125-3.44.012-.177.037-.315-.152-.504-.189-.164-1.045-.693-1.272-.857-.39-.277-.567-.542-.441-.882.088-.227.302-.315.529-.315a.6.6 0 0 1 .214.025c.429.088.844.303 1.084.365q.045.006.088 0c.126 0 .177-.05.164-.201-.025-.466-.1-1.386-.025-2.23.03-.844.36-1.648.932-2.269.214-.252 1.223-1.31 3.15-1.31a4.16 4.16 0 0 1 3.176 1.31c.454.504.832 1.097.932 2.268.063.845 0 1.765-.025 2.23 0 .152.038.202.164.202q.045.006.088 0c.252-.062.656-.277 1.084-.378a1 1 0 0 1 .214-.012c.227 0 .441.088.53.315.125.328-.051.605-.442.882-.226.151-1.083.68-1.26.857-.214.189-.176.327-.163.504.025.151.453 2.142 3.125 3.44.163.076.428.252-.05.504"></path>
</svg>