<svg height="24" width="24" viewBox="0 7 23 10"
  xmlns="http://www.w3.org/2000/svg" class="h-12 w-12 rounded-[12px] text-current" role="img" aria-labelledby=":r3b:_title " style="clip-path: inset(0px round 12px);">
  <title id=":r3b:_title">Soundcloud</title>
  <path fill="#000000" d="M0 0h24v24H0z"></path>
  <path fill="#ffffff" d="M18.102 11.45a2.674 2.674 0 0 1 3.648 2.405 2.63 2.63 0 0 1-2.624 2.625h-7.248c-.162-.025-.292-.163-.292-.317V7.875c0-.162.048-.244.243-.317a4.63 4.63 0 0 1 6.273 3.892M2.364 12.945a.34.34 0 0 1 .454-.313.33.33 0 0 1 .212.305l.106 1.162-.106 1.154a.346.346 0 0 1-.333.333.34.34 0 0 1-.333-.325l-.114-1.17.114-1.154zm1.665-1.34a.346.346 0 0 0-.333.333l-.114 2.16.114 2.048c0 .18.155.325.325.325a.335.335 0 0 0 .341-.325l.114-2.047-.114-2.161c0-.171-.162-.325-.333-.325zm1 .804c0-.179.162-.333.333-.333.179 0 .333.162.333.333l.114 1.69-.114 2.047a.34.34 0 0 1-.333.325.34.34 0 0 1-.333-.325L4.915 14.1zm1.665-2.137a.34.34 0 0 0-.325.333L6.247 14.1l.114 2.047c0 .171.163.325.333.325a.34.34 0 0 0 .333-.325l.114-2.047-.114-3.494a.33.33 0 0 0-.325-.325zm1.008-.536c0-.17.154-.325.325-.325.187 0 .341.154.341.325l.106 4.363-.106 2.047c0 .171-.162.325-.333.325a.34.34 0 0 1-.333-.325L7.588 14.1zm1.665.138a.346.346 0 0 0-.333.333l-.113 3.892.113 2.047c0 .18.155.325.325.325a.335.335 0 0 0 .342-.325l.105-2.047-.105-3.892a.325.325 0 0 0-.334-.333m1-1.024c0-.179.154-.333.325-.333.187 0 .341.163.341.333l.114 5.249-.114 2.047a.34.34 0 0 1-.333.325.34.34 0 0 1-.333-.325l-.114-2.047z"></path>
</svg>