<svg height="24" width="24" viewBox="0 0 24 24"
  xmlns="http://www.w3.org/2000/svg" class="h-12 w-12 rounded-[12px] text-current" role="img" aria-hidden="false" aria-labelledby=":r37:_title " style="clip-path: inset(0px round 12px);">
  <title id=":r37:_title">Spotify</title>
  <path fill="#101211" d="M0 0h24v24H0z"></path>
  <path fill="#1ED760" fill-rule="evenodd" d="M2.5 12A9.5 9.5 0 0 1 12 2.5a9.5 9.5 0 0 1 9.5 9.5 9.5 9.5 0 0 1-9.5 9.5A9.5 9.5 0 0 1 2.5 12m15.12-1.079C14.556 9.103 9.505 8.935 6.581 9.823a.888.888 0 1 1-.515-1.701C9.422 7.103 15 7.3 18.527 9.392a.887.887 0 1 1-.908 1.53M16.5 13.86a.74.74 0 0 0 .776-1.262c-2.933-1.802-7.222-2.31-10.672-1.263a.742.742 0 0 0 .43 1.418c3.02-.917 6.913-.463 9.467 1.107m-.958 2.539a.592.592 0 1 0 .618-1.011c-2.504-1.53-5.608-1.886-9.227-1.06a.591.591 0 1 0 .264 1.155c3.307-.755 6.115-.447 8.345.916"></path>
</svg>