<svg height="24" width="24" viewBox="0 0 24 24"
  xmlns="http://www.w3.org/2000/svg" class="h-12 w-12 rounded-[12px] text-current" role="img" aria-hidden="false" aria-labelledby=":r38:_title " style="clip-path: inset(0px round 12px);">
  <title id=":r38:_title">Threads</title>
  <rect width="24" height="24" fill="#000000"></rect>
  <path d="M16.4257 11.3244C16.346 11.2862 16.2651 11.2494 16.1831 11.2142C16.0403 8.58311 14.6026 7.07678 12.1885 7.06137C12.1776 7.0613 12.1667 7.0613 12.1558 7.0613C10.7119 7.0613 9.51097 7.67764 8.77183 8.79918L10.0995 9.70993C10.6517 8.87218 11.5182 8.69359 12.1564 8.69359C12.1638 8.69359 12.1712 8.69359 12.1785 8.69365C12.9734 8.69872 13.5732 8.92983 13.9614 9.38052C14.2439 9.70863 14.4328 10.162 14.5264 10.7343C13.8217 10.6145 13.0595 10.5777 12.2447 10.6244C9.94954 10.7566 8.47401 12.0952 8.57311 13.9552C8.6234 14.8987 9.09343 15.7104 9.89657 16.2406C10.5756 16.6889 11.4502 16.9081 12.3591 16.8585C13.5595 16.7927 14.5011 16.3347 15.1581 15.4973C15.657 14.8613 15.9726 14.0372 16.1119 12.9988C16.684 13.344 17.1079 13.7984 17.3421 14.3445C17.7402 15.2729 17.7634 16.7984 16.5186 18.0422C15.428 19.1317 14.117 19.6031 12.1357 19.6177C9.93793 19.6014 8.27578 18.8965 7.1951 17.5227C6.18313 16.2363 5.66014 14.3782 5.64063 12C5.66014 9.62177 6.18313 7.76365 7.1951 6.47724C8.27578 5.10344 9.9379 4.39862 12.1357 4.38229C14.3494 4.39875 16.0405 5.10696 17.1625 6.48739C17.7127 7.16433 18.1275 8.01564 18.401 9.00823L19.9568 8.59313C19.6254 7.37136 19.1038 6.31854 18.394 5.44541C16.9556 3.67564 14.8518 2.7688 12.1411 2.75H12.1302C9.42507 2.76874 7.34484 3.67903 5.94733 5.45556C4.70375 7.03645 4.06227 9.23615 4.04072 11.9935L4.04065 12L4.04072 12.0065C4.06227 14.7638 4.70375 16.9636 5.94733 18.5445C7.34484 20.321 9.42507 21.2313 12.1302 21.25H12.1411C14.5461 21.2333 16.2414 20.6037 17.638 19.2084C19.4651 17.3829 19.4101 15.0948 18.8079 13.6901C18.3758 12.6829 17.5521 11.8647 16.4257 11.3244ZM12.2732 15.2285C11.2673 15.2852 10.2222 14.8337 10.1707 13.8666C10.1325 13.1495 10.681 12.3494 12.3349 12.2541C12.5243 12.2431 12.7102 12.2378 12.8928 12.2378C13.4936 12.2378 14.0556 12.2962 14.5666 12.4079C14.376 14.788 13.2581 15.1745 12.2732 15.2285Z" fill="#ffffff"></path>
</svg>