<svg height="24" width="24" viewBox="0 0 24 24"
  xmlns="http://www.w3.org/2000/svg" class="h-12 w-12 rounded-[12px] text-current" role="img" aria-hidden="false" aria-labelledby=":r34:_title " style="clip-path: inset(0px round 12px);">
  <title id=":r34:_title">TikTok</title>
  <path fill="#000" d="M0 0h24v24H0z"></path>
  <path fill="#FF004F" d="M15.673 9.464a7.28 7.28 0 0 0 4.252 1.363V7.771q-.452 0-.893-.094v2.406A7.28 7.28 0 0 1 14.78 8.72v6.237a5.644 5.644 0 0 1-5.64 5.649A5.6 5.6 0 0 1 6 19.65a5.62 5.62 0 0 0 4.033 1.7c3.114 0 5.64-2.53 5.64-5.65zm1.101-3.083a4.26 4.26 0 0 1-1.102-2.494v-.393h-.846a4.28 4.28 0 0 0 1.948 2.887M7.97 17.256a2.582 2.582 0 0 1 2.836-4.027v-3.124a6 6 0 0 0-.892-.052v2.432a2.58 2.58 0 0 0-3.363 2.463 2.58 2.58 0 0 0 1.42 2.308"></path>
  <path fill="#fff" d="M14.78 8.72a7.28 7.28 0 0 0 4.252 1.363V7.677a4.27 4.27 0 0 1-2.258-1.296 4.28 4.28 0 0 1-1.948-2.887h-2.222v12.207a2.58 2.58 0 0 1-2.58 2.575c-.838 0-1.583-.4-2.054-1.02a2.58 2.58 0 0 1-1.42-2.308 2.582 2.582 0 0 1 3.364-2.463v-2.432a5.645 5.645 0 0 0-5.521 5.648c0 1.537.612 2.931 1.607 3.95a5.6 5.6 0 0 0 3.14.955c3.115 0 5.64-2.53 5.64-5.65z"></path>
  <path fill="#00F2EA" d="M19.032 7.677v-.65a4.25 4.25 0 0 1-2.258-.646c.6.657 1.39 1.11 2.258 1.296m-4.205-4.183a4 4 0 0 1-.047-.35V2.75h-3.07v12.207a2.582 2.582 0 0 1-3.74 2.3 2.58 2.58 0 0 0 2.054 1.019 2.58 2.58 0 0 0 2.58-2.575V3.494zm-4.913 6.56V9.36A5.644 5.644 0 0 0 3.5 14.957c0 1.956.992 3.68 2.5 4.693a5.64 5.64 0 0 1-1.607-3.95c0-3.08 2.46-5.583 5.521-5.647"></path>
</svg>