<svg height="24" width="24" viewBox="0 0 24 24"
  xmlns="http://www.w3.org/2000/svg" class="h-12 w-12 rounded-[12px] text-current" role="img" aria-hidden="false" aria-labelledby=":r33:_title " style="clip-path: inset(0px round 12px);">
  <title id=":r33:_title">Whatsapp</title>
  <rect width="24" height="24" fill="url(#-paint0_linear_7_350)"></rect>
  <path fill="#ffffff" fill-rule="evenodd" d="M18.023 5.99434C16.4251 4.39443 14.3 3.5129 12.0357 3.51208C7.36991 3.51208 3.57265 7.30894 3.57103 11.976C3.57021 13.4679 3.96025 14.9241 4.70095 16.2075L3.5 20.5941L7.98723 19.417C9.22347 20.0916 10.6156 20.4467 12.0321 20.4472H12.0357C16.7007 20.4472 20.4984 16.6499 20.5 11.9829C20.5008 9.721 19.6213 7.59467 18.023 5.99475V5.99434ZM12.0357 19.0177H12.0329C10.7706 19.0173 9.53236 18.678 8.45196 18.0371L8.19503 17.8845L5.53216 18.583L6.24283 15.9867L6.07561 15.7204C5.37144 14.6003 4.99926 13.3055 5.00007 11.9764C5.0017 8.09753 8.15769 4.94153 12.0386 4.94153C13.9177 4.94235 15.684 5.67493 17.0124 7.00495C18.3408 8.33456 19.0718 10.1025 19.071 11.9821C19.0693 15.8613 15.9134 19.0173 12.0357 19.0173V19.0177ZM15.8947 13.7488C15.6832 13.6429 14.6434 13.1314 14.4494 13.0608C14.2554 12.9902 14.1146 12.9549 13.9737 13.1668C13.8329 13.3786 13.4274 13.8551 13.304 13.9959C13.1807 14.1372 13.0573 14.1547 12.8458 14.0487C12.6344 13.9428 11.9529 13.7195 11.1449 12.9991C10.5162 12.4382 10.0916 11.7458 9.96826 11.534C9.84487 11.3221 9.95528 11.2077 10.0608 11.1025C10.1557 11.0076 10.2722 10.8554 10.3782 10.732C10.4841 10.6086 10.519 10.5201 10.5896 10.3793C10.6603 10.238 10.6249 10.1147 10.5722 10.0087C10.5194 9.90281 10.0965 8.86175 9.91996 8.43845C9.74826 8.0261 9.57377 8.08211 9.44429 8.07521C9.32089 8.06912 9.18008 8.06791 9.03884 8.06791C8.89759 8.06791 8.66866 8.12067 8.47467 8.33253C8.28068 8.54437 7.73437 9.05616 7.73437 10.0968C7.73437 11.1374 8.49214 12.1436 8.59806 12.2848C8.70398 12.4261 10.0896 14.5621 12.211 15.4786C12.7156 15.6965 13.1096 15.8268 13.4169 15.9242C13.9234 16.0853 14.3844 16.0626 14.7489 16.0082C15.1552 15.9473 16.0002 15.4964 16.1763 15.0025C16.3525 14.5085 16.3525 14.0848 16.2997 13.9967C16.247 13.9087 16.1057 13.8555 15.8943 13.7496L15.8947 13.7488Z"></path>
  <defs>
    <linearGradient id="-paint0_linear_7_350" x1="12" y1="0" x2="12" y2="24" gradientUnits="userSpaceOnUse">
      <stop stop-color="#46ED63"></stop>
      <stop offset="1" stop-color="#19C83E"></stop>
    </linearGradient>
  </defs>
</svg>