<svg height="24" width="30" viewBox="1 4 21 16"
  xmlns="http://www.w3.org/2000/svg" class="h-12 w-12 rounded-[12px] text-current" role="img" aria-labelledby=":r35:_title " style="clip-path: inset(0px round 12px);">
  <title id=":r35:_title">Youtube</title>
  <path fill="#ed1838" fill-rule="evenodd" d="M19.814 5.417c.862.232 1.54.91 1.77 1.769C22 8.745 22 11.999 22 11.999s0 3.255-.417 4.815a2.51 2.51 0 0 1-1.769 1.768C18.255 19 12 19 12 19s-6.252 0-7.814-.417a2.51 2.51 0 0 1-1.77-1.768C2 15.254 2 11.999 2 11.999s0-3.254.417-4.813a2.51 2.51 0 0 1 1.769-1.77C5.748 5 12 5 12 5s6.255 0 7.814.417"></path>
  <path fill="#ffffff" fill-rule="evenodd" d="M10 9l6 3-6 3V9z"></path>
</svg>