<?xml version="1.0" standalone="no"?>
<svg xmlns="http://www.w3.org/2000/svg" width="1000" height="1000" xmlns:xlink="http://www.w3.org/1999/xlink" viewBox="0 0 1000 1000"><defs><clipPath id="clip-path-background-color-0"><rect x="0" y="0" width="1000" height="1000"/></clipPath><clipPath id="clip-path-dot-color-0"><circle cx="380" cy="20" r="20" transform="rotate(0,380,20)"/><path d="M 440 0v 40h 20a 20 20, 0, 0, 0, 0 -40" transform="rotate(180,460,20)"/><rect x="480" y="0" width="40" height="40" transform="rotate(0,500,20)"/><path d="M 520 0v 40h 20a 20 20, 0, 0, 0, 0 -40" transform="rotate(0,540,20)"/><path d="M 640 0v 40h 20a 20 20, 0, 0, 0, 0 -40" transform="rotate(-90,660,20)"/><path d="M 320 40v 40h 20a 20 20, 0, 0, 0, 0 -40" transform="rotate(-90,340,60)"/><path d="M 640 40v 40h 20a 20 20, 0, 0, 0, 0 -40" transform="rotate(90,660,60)"/><path d="M 320 80v 40h 40v -20a 20 20, 0, 0, 0, -20 -20" transform="rotate(180,340,100)"/><path d="M 360 80v 40h 20a 20 20, 0, 0, 0, 0 -40" transform="rotate(0,380,100)"/><path d="M 440 80v 40h 20a 20 20, 0, 0, 0, 0 -40" transform="rotate(-90,460,100)"/><path d="M 520 80v 40h 20a 20 20, 0, 0, 0, 0 -40" transform="rotate(180,540,100)"/><rect x="560" y="80" width="40" height="40" transform="rotate(0,580,100)"/><path d="M 600 80v 40h 20a 20 20, 0, 0, 0, 0 -40" transform="rotate(0,620,100)"/><path d="M 440 120v 40h 40v -20a 20 20, 0, 0, 0, -20 -20" transform="rotate(180,460,140)"/><path d="M 480 120v 40h 20a 20 20, 0, 0, 0, 0 -40" transform="rotate(0,500,140)"/><path d="M 360 160v 40h 20a 20 20, 0, 0, 0, 0 -40" transform="rotate(-90,380,180)"/><path d="M 520 160v 40h 20a 20 20, 0, 0, 0, 0 -40" transform="rotate(180,540,180)"/><rect x="560" y="160" width="40" height="40" transform="rotate(0,580,180)"/><rect x="600" y="160" width="40" height="40" transform="rotate(0,620,180)"/><path d="M 640 160v 40h 20a 20 20, 0, 0, 0, 0 -40" transform="rotate(0,660,180)"/><path d="M 360 200v 40h 40v -20a 20 20, 0, 0, 0, -20 -20" transform="rotate(180,380,220)"/><path d="M 400 200v 40h 40v -20a 20 20, 0, 0, 0, -20 -20" transform="rotate(0,420,220)"/><rect x="560" y="200" width="40" height="40" transform="rotate(0,580,220)"/><circle cx="340" cy="260" r="20" transform="rotate(0,340,260)"/><path d="M 400 240v 40h 20a 20 20, 0, 0, 0, 0 -40" transform="rotate(90,420,260)"/><circle cx="500" cy="260" r="20" transform="rotate(0,500,260)"/><rect x="560" y="240" width="40" height="40" transform="rotate(0,580,260)"/><circle cx="660" cy="260" r="20" transform="rotate(0,660,260)"/><path d="M 360 280v 40h 20a 20 20, 0, 0, 0, 0 -40" transform="rotate(-90,380,300)"/><path d="M 520 280v 40h 40v -20a 20 20, 0, 0, 0, -20 -20" transform="rotate(-90,540,300)"/><rect x="560" y="280" width="40" height="40" transform="rotate(0,580,300)"/><path d="M 600 280v 40h 20a 20 20, 0, 0, 0, 0 -40" transform="rotate(0,620,300)"/><path d="M 40 320v 40h 40v -20a 20 20, 0, 0, 0, -20 -20" transform="rotate(-90,60,340)"/><rect x="80" y="320" width="40" height="40" transform="rotate(0,100,340)"/><path d="M 120 320v 40h 20a 20 20, 0, 0, 0, 0 -40" transform="rotate(0,140,340)"/><path d="M 200 320v 40h 40v -20a 20 20, 0, 0, 0, -20 -20" transform="rotate(-90,220,340)"/><path d="M 240 320v 40h 20a 20 20, 0, 0, 0, 0 -40" transform="rotate(0,260,340)"/><path d="M 360 320v 40h 40v -20a 20 20, 0, 0, 0, -20 -20" transform="rotate(180,380,340)"/><rect x="400" y="320" width="40" height="40" transform="rotate(0,420,340)"/><path d="M 440 320v 40h 40v -20a 20 20, 0, 0, 0, -20 -20" transform="rotate(0,460,340)"/><path d="M 520 320v 40h 40v -20a 20 20, 0, 0, 0, -20 -20" transform="rotate(180,540,340)"/><path d="M 560 320v 40h 40v -20a 20 20, 0, 0, 0, -20 -20" transform="rotate(90,580,340)"/><path d="M 640 320v 40h 20a 20 20, 0, 0, 0, 0 -40" transform="rotate(-90,660,340)"/><path d="M 880 320v 40h 20a 20 20, 0, 0, 0, 0 -40" transform="rotate(180,900,340)"/><path d="M 920 320v 40h 40v -20a 20 20, 0, 0, 0, -20 -20" transform="rotate(0,940,340)"/><path d="M 40 360v 40h 40v -20a 20 20, 0, 0, 0, -20 -20" transform="rotate(180,60,380)"/><path d="M 80 360v 40h 40v -20a 20 20, 0, 0, 0, -20 -20" transform="rotate(90,100,380)"/><path d="M 200 360v 40h 20a 20 20, 0, 0, 0, 0 -40" transform="rotate(90,220,380)"/><path d="M 280 360v 40h 40v -20a 20 20, 0, 0, 0, -20 -20" transform="rotate(-90,300,380)"/><path d="M 320 360v 40h 20a 20 20, 0, 0, 0, 0 -40" transform="rotate(0,340,380)"/><path d="M 400 360v 40h 40v -20a 20 20, 0, 0, 0, -20 -20" transform="rotate(180,420,380)"/><rect x="440" y="360" width="40" height="40" transform="rotate(0,460,380)"/><path d="M 640 360v 40h 20a 20 20, 0, 0, 0, 0 -40" transform="rotate(90,660,380)"/><path d="M 760 360v 40h 20a 20 20, 0, 0, 0, 0 -40" transform="rotate(-90,780,380)"/><path d="M 920 360v 40h 20a 20 20, 0, 0, 0, 0 -40" transform="rotate(90,940,380)"/><circle cx="20" cy="420" r="20" transform="rotate(0,20,420)"/><circle cx="140" cy="420" r="20" transform="rotate(0,140,420)"/><path d="M 240 400v 40h 20a 20 20, 0, 0, 0, 0 -40" transform="rotate(180,260,420)"/><path d="M 280 400v 40h 40v -20a 20 20, 0, 0, 0, -20 -20" transform="rotate(90,300,420)"/><rect x="440" y="400" width="40" height="40" transform="rotate(0,460,420)"/><path d="M 560 400v 40h 20a 20 20, 0, 0, 0, 0 -40" transform="rotate(-90,580,420)"/><path d="M 720 400v 40h 40v -20a 20 20, 0, 0, 0, -20 -20" transform="rotate(-90,740,420)"/><path d="M 760 400v 40h 40v -20a 20 20, 0, 0, 0, -20 -20" transform="rotate(90,780,420)"/><path d="M 40 440v 40h 20a 20 20, 0, 0, 0, 0 -40" transform="rotate(180,60,460)"/><path d="M 80 440v 40h 40v -20a 20 20, 0, 0, 0, -20 -20" transform="rotate(0,100,460)"/><path d="M 160 440v 40h 20a 20 20, 0, 0, 0, 0 -40" transform="rotate(180,180,460)"/><path d="M 200 440v 40h 40v -20a 20 20, 0, 0, 0, -20 -20" transform="rotate(0,220,460)"/><path d="M 400 440v 40h 20a 20 20, 0, 0, 0, 0 -40" transform="rotate(180,420,460)"/><rect x="440" y="440" width="40" height="40" transform="rotate(0,460,460)"/><rect x="480" y="440" width="40" height="40" transform="rotate(0,500,460)"/><rect x="520" y="440" width="40" height="40" transform="rotate(0,540,460)"/><rect x="560" y="440" width="40" height="40" transform="rotate(0,580,460)"/><path d="M 600 440v 40h 20a 20 20, 0, 0, 0, 0 -40" transform="rotate(0,620,460)"/><path d="M 680 440v 40h 40v -20a 20 20, 0, 0, 0, -20 -20" transform="rotate(-90,700,460)"/><rect x="720" y="440" width="40" height="40" transform="rotate(0,740,460)"/><path d="M 840 440v 40h 20a 20 20, 0, 0, 0, 0 -40" transform="rotate(180,860,460)"/><path d="M 880 440v 40h 40v -20a 20 20, 0, 0, 0, -20 -20" transform="rotate(0,900,460)"/><path d="M 80 480v 40h 20a 20 20, 0, 0, 0, 0 -40" transform="rotate(90,100,500)"/><path d="M 200 480v 40h 40v -20a 20 20, 0, 0, 0, -20 -20" transform="rotate(180,220,500)"/><rect x="240" y="480" width="40" height="40" transform="rotate(0,260,500)"/><path d="M 280 480v 40h 20a 20 20, 0, 0, 0, 0 -40" transform="rotate(0,300,500)"/><circle cx="380" cy="500" r="20" transform="rotate(0,380,500)"/><rect x="440" y="480" width="40" height="40" transform="rotate(0,460,500)"/><rect x="480" y="480" width="40" height="40" transform="rotate(0,500,500)"/><rect x="680" y="480" width="40" height="40" transform="rotate(0,700,500)"/><rect x="720" y="480" width="40" height="40" transform="rotate(0,740,500)"/><path d="M 800 480v 40h 20a 20 20, 0, 0, 0, 0 -40" transform="rotate(-90,820,500)"/><path d="M 880 480v 40h 40v -20a 20 20, 0, 0, 0, -20 -20" transform="rotate(180,900,500)"/><rect x="920" y="480" width="40" height="40" transform="rotate(0,940,500)"/><path d="M 960 480v 40h 40v -20a 20 20, 0, 0, 0, -20 -20" transform="rotate(0,980,500)"/><path d="M 160 520v 40h 20a 20 20, 0, 0, 0, 0 -40" transform="rotate(-90,180,540)"/><circle cx="340" cy="540" r="20" transform="rotate(0,340,540)"/><rect x="440" y="520" width="40" height="40" transform="rotate(0,460,540)"/><rect x="480" y="520" width="40" height="40" transform="rotate(0,500,540)"/><path d="M 520 520v 40h 40v -20a 20 20, 0, 0, 0, -20 -20" transform="rotate(0,540,540)"/><circle cx="620" cy="540" r="20" transform="rotate(0,620,540)"/><rect x="680" y="520" width="40" height="40" transform="rotate(0,700,540)"/><rect x="720" y="520" width="40" height="40" transform="rotate(0,740,540)"/><rect x="760" y="520" width="40" height="40" transform="rotate(0,780,540)"/><rect x="800" y="520" width="40" height="40" transform="rotate(0,820,540)"/><path d="M 960 520v 40h 20a 20 20, 0, 0, 0, 0 -40" transform="rotate(90,980,540)"/><path d="M 40 560v 40h 20a 20 20, 0, 0, 0, 0 -40" transform="rotate(180,60,580)"/><path d="M 80 560v 40h 20a 20 20, 0, 0, 0, 0 -40" transform="rotate(0,100,580)"/><rect x="160" y="560" width="40" height="40" transform="rotate(0,180,580)"/><circle cx="260" cy="580" r="20" transform="rotate(0,260,580)"/><path d="M 360 560v 40h 20a 20 20, 0, 0, 0, 0 -40" transform="rotate(-90,380,580)"/><path d="M 440 560v 40h 40v -20a 20 20, 0, 0, 0, -20 -20" transform="rotate(180,460,580)"/><rect x="480" y="560" width="40" height="40" transform="rotate(0,500,580)"/><path d="M 520 560v 40h 40v -20a 20 20, 0, 0, 0, -20 -20" transform="rotate(90,540,580)"/><rect x="680" y="560" width="40" height="40" transform="rotate(0,700,580)"/><path d="M 720 560v 40h 40v -20a 20 20, 0, 0, 0, -20 -20" transform="rotate(90,740,580)"/><rect x="800" y="560" width="40" height="40" transform="rotate(0,820,580)"/><path d="M 880 560v 40h 20a 20 20, 0, 0, 0, 0 -40" transform="rotate(180,900,580)"/><path d="M 920 560v 40h 20a 20 20, 0, 0, 0, 0 -40" transform="rotate(0,940,580)"/><circle cx="20" cy="620" r="20" transform="rotate(0,20,620)"/><path d="M 160 600v 40h 20a 20 20, 0, 0, 0, 0 -40" transform="rotate(90,180,620)"/><path d="M 280 600v 40h 40v -20a 20 20, 0, 0, 0, -20 -20" transform="rotate(-90,300,620)"/><rect x="320" y="600" width="40" height="40" transform="rotate(0,340,620)"/><rect x="360" y="600" width="40" height="40" transform="rotate(0,380,620)"/><path d="M 400 600v 40h 40v -20a 20 20, 0, 0, 0, -20 -20" transform="rotate(0,420,620)"/><path d="M 560 600v 40h 40v -20a 20 20, 0, 0, 0, -20 -20" transform="rotate(-90,580,620)"/><rect x="600" y="600" width="40" height="40" transform="rotate(0,620,620)"/><rect x="640" y="600" width="40" height="40" transform="rotate(0,660,620)"/><rect x="680" y="600" width="40" height="40" transform="rotate(0,700,620)"/><path d="M 760 600v 40h 40v -20a 20 20, 0, 0, 0, -20 -20" transform="rotate(-90,780,620)"/><rect x="800" y="600" width="40" height="40" transform="rotate(0,820,620)"/><path d="M 960 600v 40h 20a 20 20, 0, 0, 0, 0 -40" transform="rotate(-90,980,620)"/><path d="M 240 640v 40h 20a 20 20, 0, 0, 0, 0 -40" transform="rotate(180,260,660)"/><rect x="280" y="640" width="40" height="40" transform="rotate(0,300,660)"/><rect x="320" y="640" width="40" height="40" transform="rotate(0,340,660)"/><rect x="360" y="640" width="40" height="40" transform="rotate(0,380,660)"/><rect x="400" y="640" width="40" height="40" transform="rotate(0,420,660)"/><path d="M 440 640v 40h 20a 20 20, 0, 0, 0, 0 -40" transform="rotate(0,460,660)"/><path d="M 560 640v 40h 20a 20 20, 0, 0, 0, 0 -40" transform="rotate(90,580,660)"/><rect x="640" y="640" width="40" height="40" transform="rotate(0,660,660)"/><rect x="680" y="640" width="40" height="40" transform="rotate(0,700,660)"/><rect x="720" y="640" width="40" height="40" transform="rotate(0,740,660)"/><rect x="760" y="640" width="40" height="40" transform="rotate(0,780,660)"/><rect x="800" y="640" width="40" height="40" transform="rotate(0,820,660)"/><rect x="840" y="640" width="40" height="40" transform="rotate(0,860,660)"/><rect x="880" y="640" width="40" height="40" transform="rotate(0,900,660)"/><rect x="920" y="640" width="40" height="40" transform="rotate(0,940,660)"/><rect x="960" y="640" width="40" height="40" transform="rotate(0,980,660)"/><path d="M 320 680v 40h 40v -20a 20 20, 0, 0, 0, -20 -20" transform="rotate(180,340,700)"/><rect x="360" y="680" width="40" height="40" transform="rotate(0,380,700)"/><rect x="400" y="680" width="40" height="40" transform="rotate(0,420,700)"/><path d="M 480 680v 40h 20a 20 20, 0, 0, 0, 0 -40" transform="rotate(-90,500,700)"/><rect x="640" y="680" width="40" height="40" transform="rotate(0,660,700)"/><rect x="800" y="680" width="40" height="40" transform="rotate(0,820,700)"/><rect x="880" y="680" width="40" height="40" transform="rotate(0,900,700)"/><rect x="960" y="680" width="40" height="40" transform="rotate(0,980,700)"/><rect x="400" y="720" width="40" height="40" transform="rotate(0,420,740)"/><path d="M 480 720v 40h 40v -20a 20 20, 0, 0, 0, -20 -20" transform="rotate(180,500,740)"/><rect x="520" y="720" width="40" height="40" transform="rotate(0,540,740)"/><path d="M 560 720v 40h 20a 20 20, 0, 0, 0, 0 -40" transform="rotate(0,580,740)"/><rect x="640" y="720" width="40" height="40" transform="rotate(0,660,740)"/><circle cx="740" cy="740" r="20" transform="rotate(0,740,740)"/><rect x="800" y="720" width="40" height="40" transform="rotate(0,820,740)"/><path d="M 880 720v 40h 40v -20a 20 20, 0, 0, 0, -20 -20" transform="rotate(180,900,740)"/><rect x="920" y="720" width="40" height="40" transform="rotate(0,940,740)"/><rect x="960" y="720" width="40" height="40" transform="rotate(0,980,740)"/><path d="M 320 760v 40h 20a 20 20, 0, 0, 0, 0 -40" transform="rotate(180,340,780)"/><rect x="360" y="760" width="40" height="40" transform="rotate(0,380,780)"/><rect x="400" y="760" width="40" height="40" transform="rotate(0,420,780)"/><path d="M 440 760v 40h 20a 20 20, 0, 0, 0, 0 -40" transform="rotate(0,460,780)"/><path d="M 520 760v 40h 20a 20 20, 0, 0, 0, 0 -40" transform="rotate(90,540,780)"/><path d="M 600 760v 40h 20a 20 20, 0, 0, 0, 0 -40" transform="rotate(180,620,780)"/><rect x="640" y="760" width="40" height="40" transform="rotate(0,660,780)"/><rect x="800" y="760" width="40" height="40" transform="rotate(0,820,780)"/><path d="M 920 760v 40h 40v -20a 20 20, 0, 0, 0, -20 -20" transform="rotate(180,940,780)"/><path d="M 960 760v 40h 40v -20a 20 20, 0, 0, 0, -20 -20" transform="rotate(90,980,780)"/><path d="M 640 800v 40h 40v -20a 20 20, 0, 0, 0, -20 -20" transform="rotate(180,660,820)"/><rect x="680" y="800" width="40" height="40" transform="rotate(0,700,820)"/><rect x="720" y="800" width="40" height="40" transform="rotate(0,740,820)"/><rect x="760" y="800" width="40" height="40" transform="rotate(0,780,820)"/><rect x="800" y="800" width="40" height="40" transform="rotate(0,820,820)"/><path d="M 840 800v 40h 40v -20a 20 20, 0, 0, 0, -20 -20" transform="rotate(0,860,820)"/><path d="M 320 840v 40h 20a 20 20, 0, 0, 0, 0 -40" transform="rotate(-90,340,860)"/><path d="M 440 840v 40h 20a 20 20, 0, 0, 0, 0 -40" transform="rotate(180,460,860)"/><path d="M 480 840v 40h 20a 20 20, 0, 0, 0, 0 -40" transform="rotate(0,500,860)"/><path d="M 560 840v 40h 40v -20a 20 20, 0, 0, 0, -20 -20" transform="rotate(-90,580,860)"/><path d="M 600 840v 40h 40v -20a 20 20, 0, 0, 0, -20 -20" transform="rotate(0,620,860)"/><rect x="680" y="840" width="40" height="40" transform="rotate(0,700,860)"/><rect x="720" y="840" width="40" height="40" transform="rotate(0,740,860)"/><rect x="800" y="840" width="40" height="40" transform="rotate(0,820,860)"/><rect x="840" y="840" width="40" height="40" transform="rotate(0,860,860)"/><rect x="880" y="840" width="40" height="40" transform="rotate(0,900,860)"/><rect x="920" y="840" width="40" height="40" transform="rotate(0,940,860)"/><path d="M 960 840v 40h 20a 20 20, 0, 0, 0, 0 -40" transform="rotate(0,980,860)"/><rect x="320" y="880" width="40" height="40" transform="rotate(0,340,900)"/><rect x="560" y="880" width="40" height="40" transform="rotate(0,580,900)"/><rect x="600" y="880" width="40" height="40" transform="rotate(0,620,900)"/><rect x="640" y="880" width="40" height="40" transform="rotate(0,660,900)"/><rect x="680" y="880" width="40" height="40" transform="rotate(0,700,900)"/><path d="M 720 880v 40h 40v -20a 20 20, 0, 0, 0, -20 -20" transform="rotate(90,740,900)"/><rect x="800" y="880" width="40" height="40" transform="rotate(0,820,900)"/><rect x="880" y="880" width="40" height="40" transform="rotate(0,900,900)"/><path d="M 920 880v 40h 40v -20a 20 20, 0, 0, 0, -20 -20" transform="rotate(90,940,900)"/><path d="M 320 920v 40h 40v -20a 20 20, 0, 0, 0, -20 -20" transform="rotate(180,340,940)"/><rect x="360" y="920" width="40" height="40" transform="rotate(0,380,940)"/><path d="M 400 920v 40h 40v -20a 20 20, 0, 0, 0, -20 -20" transform="rotate(0,420,940)"/><path d="M 480 920v 40h 20a 20 20, 0, 0, 0, 0 -40" transform="rotate(180,500,940)"/><rect x="520" y="920" width="40" height="40" transform="rotate(0,540,940)"/><rect x="560" y="920" width="40" height="40" transform="rotate(0,580,940)"/><rect x="680" y="920" width="40" height="40" transform="rotate(0,700,940)"/><rect x="800" y="920" width="40" height="40" transform="rotate(0,820,940)"/><rect x="880" y="920" width="40" height="40" transform="rotate(0,900,940)"/><path d="M 400 960v 40h 20a 20 20, 0, 0, 0, 0 -40" transform="rotate(90,420,980)"/><path d="M 520 960v 40h 40v -20a 20 20, 0, 0, 0, -20 -20" transform="rotate(180,540,980)"/><path d="M 560 960v 40h 40v -20a 20 20, 0, 0, 0, -20 -20" transform="rotate(90,580,980)"/><path d="M 680 960v 40h 20a 20 20, 0, 0, 0, 0 -40" transform="rotate(90,700,980)"/><path d="M 760 960v 40h 20a 20 20, 0, 0, 0, 0 -40" transform="rotate(180,780,980)"/><rect x="800" y="960" width="40" height="40" transform="rotate(0,820,980)"/><rect x="840" y="960" width="40" height="40" transform="rotate(0,860,980)"/><rect x="880" y="960" width="40" height="40" transform="rotate(0,900,980)"/><rect x="920" y="960" width="40" height="40" transform="rotate(0,940,980)"/><path d="M 960 960v 40h 20a 20 20, 0, 0, 0, 0 -40" transform="rotate(0,980,980)"/></clipPath><clipPath id="clip-path-corners-square-color-0-0-0"><path clip-rule="evenodd" d="M 0 100v 80a 100 100, 0, 0, 0, 100 100h 80a 100 100, 0, 0, 0, 100 -100v -80a 100 100, 0, 0, 0, -100 -100h -80a 100 100, 0, 0, 0, -100 100M 100 40h 80a 60 60, 0, 0, 1, 60 60v 80a 60 60, 0, 0, 1, -60 60h -80a 60 60, 0, 0, 1, -60 -60v -80a 60 60, 0, 0, 1, 60 -60" transform="rotate(0,140,140)"/></clipPath><clipPath id="clip-path-corners-dot-color-0-0-0"><circle cx="140" cy="140" r="60" transform="rotate(0,140,140)"/></clipPath><clipPath id="clip-path-corners-square-color-1-0-0"><path clip-rule="evenodd" d="M 720 100v 80a 100 100, 0, 0, 0, 100 100h 80a 100 100, 0, 0, 0, 100 -100v -80a 100 100, 0, 0, 0, -100 -100h -80a 100 100, 0, 0, 0, -100 100M 820 40h 80a 60 60, 0, 0, 1, 60 60v 80a 60 60, 0, 0, 1, -60 60h -80a 60 60, 0, 0, 1, -60 -60v -80a 60 60, 0, 0, 1, 60 -60" transform="rotate(90,860,140)"/></clipPath><clipPath id="clip-path-corners-dot-color-1-0-0"><circle cx="860" cy="140" r="60" transform="rotate(90,860,140)"/></clipPath><clipPath id="clip-path-corners-square-color-0-1-0"><path clip-rule="evenodd" d="M 0 820v 80a 100 100, 0, 0, 0, 100 100h 80a 100 100, 0, 0, 0, 100 -100v -80a 100 100, 0, 0, 0, -100 -100h -80a 100 100, 0, 0, 0, -100 100M 100 760h 80a 60 60, 0, 0, 1, 60 60v 80a 60 60, 0, 0, 1, -60 60h -80a 60 60, 0, 0, 1, -60 -60v -80a 60 60, 0, 0, 1, 60 -60" transform="rotate(-90,140,860)"/></clipPath><clipPath id="clip-path-corners-dot-color-0-1-0"><circle cx="140" cy="860" r="60" transform="rotate(-90,140,860)"/></clipPath></defs><rect x="0" y="0" height="1000" width="1000" clip-path="url(#clip-path-background-color-0)" fill="#FFFFFF"/><rect x="0" y="0" height="1000" width="1000" clip-path="url(#clip-path-dot-color-0)" fill="#000000"/><rect x="0" y="0" height="280" width="280" clip-path="url(#clip-path-corners-square-color-0-0-0)" fill="#000000"/><rect x="80" y="80" height="120" width="120" clip-path="url(#clip-path-corners-dot-color-0-0-0)" fill="#000000"/><rect x="720" y="0" height="280" width="280" clip-path="url(#clip-path-corners-square-color-1-0-0)" fill="#000000"/><rect x="800" y="80" height="120" width="120" clip-path="url(#clip-path-corners-dot-color-1-0-0)" fill="#000000"/><rect x="0" y="720" height="280" width="280" clip-path="url(#clip-path-corners-square-color-0-1-0)" fill="#000000"/><rect x="80" y="800" height="120" width="120" clip-path="url(#clip-path-corners-dot-color-0-1-0)" fill="#000000"/></svg>