<svg width="800" height="200" viewBox="0 0 200 50" fill="none" xmlns="http://www.w3.org/2000/svg">
  <!-- Icon -->
  <g transform="translate(5, 5) scale(1.25)">
    <!-- Top-left finder pattern -->
    <rect x="1" y="1" width="12" height="12" rx="2.5" stroke="#0a0a0a" stroke-width="2"/>
    <rect x="4.5" y="4.5" width="5" height="5" rx="1.2" fill="#0a0a0a"/>

    <!-- Top-right finder pattern -->
    <rect x="19" y="1" width="12" height="12" rx="2.5" stroke="#0a0a0a" stroke-width="2"/>
    <rect x="22.5" y="4.5" width="5" height="5" rx="1.2" fill="#0a0a0a"/>

    <!-- Bottom-left finder pattern -->
    <rect x="1" y="19" width="12" height="12" rx="2.5" stroke="#0a0a0a" stroke-width="2"/>
    <rect x="4.5" y="22.5" width="5" height="5" rx="1.2" fill="#0a0a0a"/>

    <!-- Data modules -->
    <rect x="15" y="15" width="4" height="4" rx="1" fill="#0a0a0a"/>
    <rect x="21" y="15" width="4" height="4" rx="1" fill="#0a0a0a" opacity="0.7"/>
    <rect x="27" y="15" width="4" height="4" rx="1" fill="#0a0a0a" opacity="0.5"/>
    <rect x="15" y="21" width="4" height="4" rx="1" fill="#0a0a0a" opacity="0.5"/>
    <rect x="21" y="21" width="4" height="4" rx="1" fill="#0a0a0a" opacity="0.7"/>
    <rect x="15" y="27" width="4" height="4" rx="1" fill="#0a0a0a" opacity="0.7"/>
    <rect x="27" y="21" width="4" height="4" rx="1" fill="#0a0a0a"/>
    <rect x="27" y="27" width="4" height="4" rx="1" fill="#0a0a0a" opacity="0.4"/>
  </g>

  <!-- Text -->
  <text x="58" y="35" font-family="Inter, system-ui, sans-serif" font-weight="700" font-size="26" fill="#0a0a0a">QRcodly</text>
</svg>
