<?xml version="1.0" encoding="UTF-8" standalone="no" ?>
<!DOCTYPE svg PUBLIC "-//W3C//DTD SVG 1.1//EN" "http://www.w3.org/Graphics/SVG/1.1/DTD/svg11.dtd">
<svg xmlns="http://www.w3.org/2000/svg" xmlns:xlink="http://www.w3.org/1999/xlink" version="1.1" width="1080" height="1080" viewBox="0 0 1080 1080" xml:space="preserve">
<desc>Created with Fabric.js 5.2.4</desc>
<defs>
</defs>
<rect x="0" y="0" width="100%" height="100%" fill="transparent"></rect>
<g transform="matrix(1 0 0 1 540 540)" id="25318010-41bc-4ef9-867d-31ab70b3df55"  >
<rect style="stroke: none; stroke-width: 1; stroke-dasharray: none; stroke-linecap: butt; stroke-dashoffset: 0; stroke-linejoin: miter; stroke-miterlimit: 4; fill: rgb(255,255,255); fill-rule: nonzero; opacity: 1; visibility: hidden;" vector-effect="non-scaling-stroke"  x="-540" y="-540" rx="0" ry="0" width="1080" height="1080" />
</g>
<g transform="matrix(1 0 0 1 540 540)" id="767db207-a42c-474d-b0f1-84a5ba4aab2c"  >
</g>
<g transform="matrix(2.27 0 0 2.27 540 540)" clip-path="url(#CLIPPATH_6)"  >
<clipPath id="CLIPPATH_6" >
	<path transform="matrix(1 0 0 1 0 0) translate(-252, -252)" id="clip-path-corners-square-color-0-0-10" d="M 14 184 L 14 320 C 14 413.88840747123487 90.11159252876512 490 184 490 L 320 490 C 413.88840747123487 490 490 413.88840747123487 490 320 L 490 184 C 490 90.11159252876512 413.88840747123487 14 320 14 L 184 14 C 90.11159252876512 14 14 90.11159252876512 14 184 M 184 82 L 320 82 C 376.33304448274095 82 422 127.66695551725904 422 183.99999999999997 L 422 320 C 422 376.33304448274095 376.33304448274095 422 320 422 L 184 422 C 127.66695551725907 422 82 376.33304448274095 82 320 L 82 184 C 82 127.66695551725907 127.66695551725907 82 184 82" stroke-linecap="round" />
</clipPath>
<rect style="stroke: none; stroke-width: 1; stroke-dasharray: none; stroke-linecap: butt; stroke-dashoffset: 0; stroke-linejoin: miter; stroke-miterlimit: 4; fill: rgb(0,0,0); fill-rule: nonzero; opacity: 1;"  x="-238" y="-238" rx="0" ry="0" width="476" height="476" />
</g>
</svg>