<svg xmlns="http://www.w3.org/2000/svg" viewBox="0 0 48 48" width="48" height="48" aria-label="Google Analytics">
	<path
		fill="#F57C00"
		d="M42 37.2c0 2.43-1.97 4.8-4.4 4.8-2.43 0-4.4-2.37-4.4-4.8V10.8c0-2.43 1.97-4.8 4.4-4.8 2.43 0 4.4 2.37 4.4 4.8v26.4z"
	/>
	<path
		fill="#FFA726"
		d="M10.4 42c-2.43 0-4.4-1.97-4.4-4.4 0-2.43 1.97-4.4 4.4-4.4s4.4 1.97 4.4 4.4c0 2.43-1.97 4.4-4.4 4.4z"
	/>
	<path
		fill="#F57C00"
		d="M28.8 37.2c0 2.43-1.97 4.8-4.4 4.8-2.43 0-4.4-2.37-4.4-4.8V24c0-2.43 1.97-4.8 4.4-4.8 2.43 0 4.4 2.37 4.4 4.8v13.2z"
	/>
</svg>
