<svg xmlns="http://www.w3.org/2000/svg" viewBox="0 0 48 48" width="48" height="48" aria-label="Matomo">
	<path
		fill="#3152A0"
		d="M24 4C12.95 4 4 12.95 4 24s8.95 20 20 20 20-8.95 20-20S35.05 4 24 4z"
	/>
	<path
		fill="#fff"
		d="M34.5 30.5c-1.38 0-2.5-1.12-2.5-2.5V20c0-1.38 1.12-2.5 2.5-2.5S37 18.62 37 20v8c0 1.38-1.12 2.5-2.5 2.5zm-7 2c-1.38 0-2.5-1.12-2.5-2.5V18c0-1.38 1.12-2.5 2.5-2.5S30 16.62 30 18v12c0 1.38-1.12 2.5-2.5 2.5zm-7-2c-1.38 0-2.5-1.12-2.5-2.5V20c0-1.38 1.12-2.5 2.5-2.5S23 18.62 23 20v8c0 1.38-1.12 2.5-2.5 2.5zm-7 2c-1.38 0-2.5-1.12-2.5-2.5V18c0-1.38 1.12-2.5 2.5-2.5S16 16.62 16 18v12c0 1.38-1.12 2.5-2.5 2.5z"
	/>
</svg>
